<svg xmlns="http://www.w3.org/2000/svg" viewBox="0 0 128 128" shape-rendering="crispEdges"><g shape-rendering="crispEdges"><path fill="#4B5BAB" d="M0 0h128v128h-128z"/></g><g shape-rendering="crispEdges"><path fill="#000000" d="M32 32h64v4h-64zM32 36h4v16h-4zM92 36h4v16h-4zM32 52h20v4h-20zM76 52h20v4h-20zM48 56h4v8h-4zM76 56h4v8h-4zM92 63h4v1h-4zM32 64h20v4h-20zM76 64h20v4h-20zM32 68h4v8h-4zM92 68h4v8h-4zM44 80h4v4h-4zM80 80h4v4h-4zM48 84h8v4h-8zM72 84h8v4h-8zM52 88h4v4h-4zM72 88h4v4h-4zM40 92h16v4h-16zM72 92h16v4h-16zM36 96h4v4h-4zM88 96h4v4h-4zM36 100h8v4h-8zM84 100h8v4h-8z"/><path fill="#040000" d="M56 96h16v4h-16zM44 100h4v2h-4zM52 100h3v2h-3zM73 100h3v2h-3zM80 100h4v2h-4zM44 102h12v2h-12zM72 102h12v2h-12z"/><path fill="#050300" d="M36 76h4v16h-4zM88 76h4v16h-4zM54 96h2v4h-2zM72 96h2v4h-2zM48 100h4v2h-4zM55 100h1v2h-1zM72 100h1v2h-1zM76 100h4v2h-4z"/><path fill="#1C1C1C" d="M80 63h12v1h-12z"/><path fill="#A50A0A" d="M40 40h48v8h-48zM52 52h24v16h-24zM36 68h56v8h-56zM40 76h48v4h-48zM40 80h4v4h-4zM48 80h32v4h-32zM84 80h4v4h-4zM40 84h8v4h-8zM56 84h16v12h-16zM80 84h8v4h-8zM40 88h12v4h-12zM76 88h12v4h-12zM40 96h14v4h-14zM74 96h14v4h-14z"/><path fill="#FFFFFF" d="M36 36h56v4h-56zM36 40h4v8h-4zM88 40h4v8h-4zM36 48h56v4h-56z"/></g><g shape-rendering="crispEdges"><path fill="#000000" d="M48 60h32v4h-32zM44 64h4v8h-4zM80 64h4v8h-4zM72 68h4v4h-4zM48 72h4v4h-4zM76 72h4v4h-4zM52 76h24v4h-24z"/><path fill="#FF0000" d="M48 64h32v4h-32zM48 68h4v4h-4zM76 68h4v4h-4zM52 72h24v4h-24z"/><path fill="#FFFFFF" d="M52 68h20v4h-20z"/></g><g shape-rendering="crispEdges"><path fill="#000000" d="M44 48h40v4h-40zM44 52h4v8h-4zM64 52h20v8h-20zM52 56h4v4h-4z"/><path fill="#FFFFFF" d="M48 52h16v4h-16zM48 56h4v4h-4zM56 56h8v4h-8z"/></g></svg>